PathFileType	4	(X/Y/Z)	Patient4_TMGait_0pt4_02_right_04.trc.trc
DataRate	CameraRate	NumFrames	NumMarkers	Units	OrigDataRate	OrigDataStartFrame	OrigNumFrames
72.916666666667	72.916666666667	4	33	mm	72.916666666667	124	       141
Frame#	Time	Sacral			L.Shoulder			Chest			R.Shoulder			Neck			R.ASIS			L.ASIS			R.Thigh.Superior			R.Thigh.Lateral			R.Thigh.Inferior			R.Patella			L.Thigh.Superior			L.Thigh.Lateral			L.Thigh.Inferior			L.Patella			L.Shank.Superior			L.Shank.Lateral			L.Shank.Inferior			R.Shank.Superior			R.Shank.Lateral			R.Shank.Inferior			R.Heel			R.Midfoot.Superior			R.Midfoot.Lateral			R.Toe			L.Heel			L.Midfoot.Lateral			L.Midfoot.Superior			L.Toe			L.Elbow			L.Wrist			R.Elbow			R.Wrist			
		X1	Y1	Z1	X2	Y2	Z2	X3	Y3	Z3	X4	Y4	Z4	X5	Y5	Z5	X6	Y6	Z6	X7	Y7	Z7	X8	Y8	Z8	X9	Y9	Z9	X10	Y10	Z10	X11	Y11	Z11	X12	Y12	Z12	X13	Y13	Z13	X14	Y14	Z14	X15	Y15	Z15	X16	Y16	Z16	X17	Y17	Z17	X18	Y18	Z18	X19	Y19	Z19	X20	Y20	Z20	X21	Y21	Z21	X22	Y22	Z22	X23	Y23	Z23	X24	Y24	Z24	X25	Y25	Z25	X26	Y26	Z26	X27	Y27	Z27	X28	Y28	Z28	X29	Y29	Z29	X30	Y30	Z30	X31	Y31	Z31	X32	Y32	Z32	X33	Y33	Z33	

124	6.296857142857	843.601963530107	999.988507788382	433.694766770827	1058.008919321890	1419.644996337883	253.163844784622	1131.484339506736	1359.118539603915	431.772188158666	1021.754158769579	1440.517851171500	586.792147676713	1016.651727850375	1489.073097833672	403.963752875934	1061.413616132310	939.021332467258	574.195664051890	1072.672077323384	958.474461806491	296.639349242806	1128.715245106182	753.216976074277	552.737726375713	1067.503582421980	635.056626931713	620.508954003094	1158.298044347956	590.799812131094	546.956554274934	1182.077997735319	509.168683935190	562.024540855320	1075.991271286066	732.374149392556	322.734904854558	962.575243308516	634.788585514199	257.629272932575	1025.362921137883	542.704054364263	319.952198199433	1011.330443638331	476.100844397855	328.414381473666	977.992398199831	409.199321794609	320.257312022353	874.435746763468	305.526432431178	270.457894039291	914.512450408074	188.905725134990	341.606837389294	1162.849376940781	421.287232099647	573.131931733744	1103.947868370847	312.251871586915	638.816061385754	1168.286414819977	221.903736371588	589.251712399161	1065.917796961242	45.005734586056	567.047108212366	1234.044089935896	104.398058543370	602.574173030013	1150.430733688321	39.313863605828	640.163016848834	1355.940105896243	59.067033392494	627.703956673175	777.113577125956	39.349256997529	389.377746145945	847.946291055467	35.132351914307	306.184221187547	932.455680053053	95.345167377369	330.210424955836	1059.945255737311	42.102914647393	297.505631166593	1108.299788521008	1074.185175492982	129.919327741848	1285.581480695207	883.386433587355	173.203810836767	878.526408263030	1129.567430866844	702.530797414580	892.733506656269	869.960961338154	737.062876874263	
125	6.310571428571	845.383747180862	998.931194253270	437.069729638483	1057.765023180440	1419.280761144719	256.383955529179	1131.836774333500	1359.047924354715	434.836981540651	1021.990245457686	1439.841893425989	590.110727715122	1016.417954259923	1488.526032859227	407.286444388005	1063.883325878761	938.350070355059	576.569827776630	1073.932475352985	957.748337500905	299.238881602976	1131.471934872480	751.948611265569	554.467776164783	1069.089360895688	633.766142365084	621.151812964250	1159.816747381195	589.919957484624	547.418864851991	1182.621838124175	507.180145650845	561.625942382103	1076.547898432703	731.356309938125	324.338889540149	961.923174985866	634.606066914977	259.725251500962	1024.394371144412	541.857743958497	321.377150652973	1010.138977031550	474.945855843774	329.686921619777	975.797555642093	408.459385503829	321.491878016563	870.952554125339	306.110390455525	271.643438667484	910.012668489332	188.626898798412	341.987520544584	1162.002472031621	418.540692343290	572.663283765831	1100.959102712086	310.451511622703	638.308536219354	1162.684758902597	218.710526207753	587.860146819798	1055.960760864561	43.989635437706	566.361101129543	1225.093628061496	101.323090434312	600.426884559260	1140.669656195629	37.996029199875	639.305870958555	1346.773401516684	54.432968290764	625.574466395693	771.562147711394	39.521095709632	389.299270339485	842.457401580765	35.141642305709	306.216200502992	927.057251490941	95.340503713892	330.206095993553	1054.515947581486	41.838175564594	297.451809232473	1107.885075778619	1073.187588832696	134.316067629462	1283.800507929690	880.764923947468	176.172552795550	881.072505273657	1127.798774326226	706.036182082552	900.182682830150	868.079924393058	738.949361946474	
126	6.324285714286	847.204762481379	998.014326036551	440.553619343741	1057.562395986713	1419.083056224889	259.759365005136	1132.301802783440	1359.064818482875	438.011207011091	1022.427929732773	1439.250673529509	593.597356796593	1016.275661068506	1488.111936702127	410.797445362047	1066.398246470316	937.864822296791	579.052991447377	1075.284042939991	957.133796767945	301.980881866551	1134.139379121076	750.840459392618	556.182814713226	1070.823517627202	632.837659604494	622.040268115006	1161.270590420378	589.307418802341	547.909206801094	1183.121935435882	505.512709855828	561.410508132344	1077.414026146199	730.467821561193	326.078287991563	961.705578211727	634.417222231946	261.973570741405	1024.025519700670	541.037505099467	322.915373660117	1009.615278995322	473.693477431374	331.010056603748	974.101091208222	407.680295157819	322.787545853411	867.792077409793	306.830256541258	272.932188338575	905.669976455525	188.392996035945	342.378677869688	1161.347988508098	416.256693862657	572.506534177124	1098.618696117669	309.011684260563	638.276228543652	1157.857607696390	216.111353301672	586.829171508111	1047.312344661062	43.216490938672	566.036988209717	1217.193810632737	99.212711935227	598.764721930516	1132.230406618260	37.152356635620	638.786476485178	1338.775202591276	51.111914778211	623.827434192530	766.000044825685	39.880572214612	389.191865025150	836.973720044320	35.192411703322	306.244153365043	921.728746215080	95.343916595548	330.151864823074	1049.110460796237	41.516630471557	297.375507181705	1107.173362336880	1072.370156351199	138.691269709739	1281.535629853892	878.160751706649	178.900751721629	884.146259707835	1126.010085949941	709.912074341439	908.674632759090	866.332604666719	741.309577041276	
127	6.338000000000	849.026006068779	997.284690573487	444.114755170717	1057.430862493768	1419.076884002024	263.264608088464	1132.870307436407	1359.184469681030	441.283004040412	1023.048388917829	1438.789762162612	597.216140324853	1016.232307424899	1487.860892947809	414.459738959508	1068.879001847195	937.597458306758	581.690801008860	1076.716330512996	956.683099653191	304.880270089484	1136.682166722871	749.999578736832	557.916790638669	1072.741167771485	632.306301980613	623.221803398511	1162.698736063621	588.994570178734	548.501777036830	1183.611483755272	504.193960184527	561.509860142509	1078.585045566927	729.762024568072	328.012953524414	961.999430562692	634.224497496684	264.362415622909	1024.372138629153	540.268815362200	324.569218207140	1009.883275967582	472.350865713449	332.338683911104	973.004995616491	406.878959366314	324.107727415822	865.035574250515	307.735710227389	274.303608110683	901.547913056025	188.257613087795	342.755896495162	1160.890437400275	414.463253293584	572.708790572479	1096.890287494188	307.950683036796	638.720016534211	1153.783093945183	214.122817287469	586.190477778454	1039.944241614080	42.703589032055	565.997451903157	1210.337732604539	97.977014979853	597.631051342916	1125.050280045637	36.716196689850	638.563453612147	1331.899729748246	48.963927406921	622.545921633946	760.450171598200	40.545559152781	389.048566931558	831.505938340594	35.337541716887	306.261290467046	916.511268375629	95.369659456454	330.024336844399	1043.725622928072	41.140696102266	297.275827050480	1106.131813569811	1071.760142631002	143.025862527347	1278.769141691671	875.626031602600	181.376561229962	887.723390594889	1124.263426923007	714.117530954852	918.188150471240	864.839710366686	744.135893961991	
